<svg width="44" height="27" viewBox="0 0 44 27" fill="none" xmlns="http://www.w3.org/2000/svg">
<path d="M5.62791 21.0002H3.5814C2.63188 20.9991 1.72157 20.6301 1.05016 19.9739C0.378756 19.3178 0.0010833 18.4281 0 17.5002V7.5002C0.0010833 6.57227 0.378756 5.68264 1.05016 5.0265C1.72157 4.37035 2.63188 4.00126 3.5814 4.0002H5.62791C6.03498 4.0002 6.42539 4.15824 6.71323 4.43954C7.00108 4.72085 7.16279 5.10238 7.16279 5.5002V19.5002C7.16279 19.898 7.00108 20.2796 6.71323 20.5609C6.42539 20.8422 6.03498 21.0002 5.62791 21.0002ZM3.5814 7.0002C3.4457 7.0002 3.31557 7.05288 3.21962 7.14665C3.12367 7.24042 3.06977 7.36759 3.06977 7.5002V17.5002C3.06977 17.6328 3.12367 17.76 3.21962 17.8538C3.31557 17.9475 3.4457 18.0002 3.5814 18.0002H4.09302V7.0002H3.5814ZM40.4186 21.0002H38.3721C37.965 21.0002 37.5746 20.8422 37.2868 20.5609C36.9989 20.2796 36.8372 19.898 36.8372 19.5002V5.5002C36.8372 5.10238 36.9989 4.72085 37.2868 4.43954C37.5746 4.15824 37.965 4.0002 38.3721 4.0002H40.4186C41.3681 4.00126 42.2784 4.37035 42.9498 5.0265C43.6212 5.68264 43.9989 6.57227 44 7.5002V17.5002C43.9989 18.4281 43.6212 19.3178 42.9498 19.9739C42.2784 20.6301 41.3681 20.9991 40.4186 21.0002ZM39.907 18.0002H40.4186C40.5543 18.0002 40.6844 17.9475 40.7804 17.8538C40.8763 17.76 40.9302 17.6328 40.9302 17.5002V7.5002C40.9302 7.36759 40.8763 7.24042 40.7804 7.14665C40.6844 7.05288 40.5543 7.0002 40.4186 7.0002H39.907V18.0002Z" fill="#01AC27"/>
<path d="M38.3722 27C37.9651 27 37.5747 26.842 37.2868 26.5607C36.999 26.2794 36.8373 25.8978 36.8373 25.5V3.5C36.8373 3.36739 36.7834 3.24021 36.6874 3.14645C36.5915 3.05268 36.4613 3 36.3256 3H7.67448C7.53878 3 7.40865 3.05268 7.3127 3.14645C7.21675 3.24021 7.16285 3.36739 7.16285 3.5V23.5C7.16285 23.6326 7.21675 23.7598 7.3127 23.8535C7.40865 23.9473 7.53878 24 7.67448 24H12.7191C12.8033 24.0001 12.8862 23.9798 12.9604 23.9411C13.0347 23.9024 13.098 23.8464 13.1448 23.778L16.0222 19.558C16.3486 19.0781 16.7916 18.6846 17.3115 18.4127C17.8315 18.1409 18.4122 17.9991 19.0019 18H24.9982C25.5881 17.9993 26.1689 18.1414 26.6889 18.4136C27.2088 18.6858 27.6517 19.0797 27.9779 19.56L30.8553 23.778C30.9021 23.8464 30.9654 23.9024 31.0397 23.9411C31.1139 23.9798 31.1968 24.0001 31.281 24H34.2791C34.6862 24 35.0766 24.158 35.3645 24.4393C35.6523 24.7206 35.814 25.1022 35.814 25.5C35.814 25.8978 35.6523 26.2794 35.3645 26.5607C35.0766 26.842 34.6862 27 34.2791 27H31.281C30.6911 27.0007 30.1103 26.8586 29.5903 26.5864C29.0703 26.3141 28.6275 25.9203 28.3013 25.44L25.4239 21.222C25.3771 21.1536 25.3137 21.0976 25.2395 21.0589C25.1652 21.0202 25.0824 20.9999 24.9982 21H19.0019C18.9178 20.9999 18.8349 21.0202 18.7606 21.0589C18.6864 21.0976 18.623 21.1536 18.5762 21.222L15.6988 25.442C15.3724 25.9219 14.9294 26.3154 14.4095 26.5872C13.8896 26.8591 13.3088 27.0009 12.7191 27H7.67448C6.72496 26.9989 5.81465 26.6298 5.14324 25.9737C4.47184 25.3176 4.09416 24.4279 4.09308 23.5V3.5C4.09416 2.57207 4.47184 1.68244 5.14324 1.0263C5.81465 0.370148 6.72496 0.00105868 7.67448 0H36.3256C37.2752 0.00105868 38.1855 0.370148 38.8569 1.0263C39.5283 1.68244 39.9059 2.57207 39.907 3.5V25.5C39.907 25.8978 39.7453 26.2794 39.4575 26.5607C39.1696 26.842 38.7792 27 38.3722 27Z" fill="#01AC27"/>
</svg>
