<svg width="20" height="21" viewBox="0 0 20 21" fill="none" xmlns="http://www.w3.org/2000/svg">
<path d="M9.16602 2.16797C13.306 2.16797 16.666 5.52797 16.666 9.66797C16.666 13.808 13.306 17.168 9.16602 17.168C5.02602 17.168 1.66602 13.808 1.66602 9.66797C1.66602 5.52797 5.02602 2.16797 9.16602 2.16797ZM9.16602 15.5013C12.3889 15.5013 14.9993 12.8909 14.9993 9.66797C14.9993 6.44505 12.3889 3.83464 9.16602 3.83464C5.9431 3.83464 3.33268 6.44505 3.33268 9.66797C3.33268 12.8909 5.9431 15.5013 9.16602 15.5013ZM16.2371 15.5606L18.5941 17.9176L17.4156 19.0961L15.0586 16.7391L16.2371 15.5606Z" fill="black"/>
</svg>
