<svg width="130" height="58" viewBox="0 0 130 58" fill="none" xmlns="http://www.w3.org/2000/svg">
<path d="M0.76 0.631998H6.648V9.272L14.36 0.631998H21.496L13.272 9.752L22.008 23H14.904L9.144 14.296L6.648 17.08V23H0.76V0.631998ZM22.745 23V0.599998H28.633V18.008H36.825V23H22.745ZM36.97 23L44.97 0.599998H52.074L60.01 23H53.674L52.266 18.744H44.458L43.082 23H36.97ZM45.962 14.104H50.73L48.33 6.84L45.962 14.104ZM65.1408 15.736C65.2048 16.632 65.5568 17.336 66.2608 17.88C66.9328 18.424 67.8608 18.68 69.0448 18.68C69.9728 18.68 70.7408 18.52 71.3168 18.136C71.8928 17.784 72.1808 17.24 72.1808 16.536C72.1808 16.088 72.0208 15.736 71.7008 15.48C71.3808 15.224 70.8688 15.032 70.1968 14.84C69.5248 14.648 68.4368 14.392 66.9008 14.072C65.3968 13.752 64.1488 13.4 63.1888 12.952C62.1968 12.504 61.3968 11.864 60.8208 10.968C60.2128 10.072 59.9248 8.888 59.9248 7.416C59.9248 6.104 60.2768 4.92 61.0448 3.832C61.8128 2.776 62.8368 1.944 64.1808 1.336C65.5248 0.727999 66.9968 0.407999 68.6608 0.407999C70.3248 0.407999 71.8608 0.727999 73.2048 1.336C74.5488 1.976 75.6368 2.84 76.4048 3.928C77.1728 5.016 77.5888 6.232 77.5888 7.576H71.8608C71.7968 6.808 71.4768 6.168 70.9328 5.688C70.3568 5.208 69.6208 4.952 68.6608 4.952C67.8288 4.952 67.1248 5.144 66.6128 5.464C66.1008 5.816 65.8448 6.328 65.8448 6.968C65.8448 7.416 65.9728 7.768 66.2928 8.024C66.6128 8.28 67.0928 8.472 67.7648 8.664C68.4048 8.856 69.4928 9.08 70.9968 9.368C72.5008 9.688 73.7488 10.04 74.7728 10.456C75.7648 10.904 76.5648 11.544 77.1728 12.376C77.7808 13.24 78.1008 14.392 78.1008 15.8C78.1008 17.208 77.6848 18.456 76.9168 19.576C76.1168 20.728 75.0288 21.592 73.6208 22.232C72.2128 22.872 70.6768 23.192 68.9488 23.192C67.1568 23.192 65.5248 22.872 64.0848 22.2C62.6128 21.56 61.4928 20.632 60.6608 19.48C59.8288 18.328 59.4128 17.048 59.4128 15.608L65.1408 15.736ZM84.6258 15.736C84.6898 16.632 85.0418 17.336 85.7458 17.88C86.4178 18.424 87.3458 18.68 88.5298 18.68C89.4578 18.68 90.2258 18.52 90.8018 18.136C91.3778 17.784 91.6658 17.24 91.6658 16.536C91.6658 16.088 91.5058 15.736 91.1858 15.48C90.8658 15.224 90.3538 15.032 89.6818 14.84C89.0098 14.648 87.9218 14.392 86.3858 14.072C84.8818 13.752 83.6338 13.4 82.6738 12.952C81.6818 12.504 80.8818 11.864 80.3058 10.968C79.6978 10.072 79.4098 8.888 79.4098 7.416C79.4098 6.104 79.7618 4.92 80.5298 3.832C81.2978 2.776 82.3218 1.944 83.6658 1.336C85.0098 0.727999 86.4818 0.407999 88.1458 0.407999C89.8098 0.407999 91.3458 0.727999 92.6898 1.336C94.0338 1.976 95.1218 2.84 95.8898 3.928C96.6578 5.016 97.0738 6.232 97.0738 7.576H91.3458C91.2818 6.808 90.9618 6.168 90.4178 5.688C89.8418 5.208 89.1058 4.952 88.1458 4.952C87.3138 4.952 86.6098 5.144 86.0978 5.464C85.5858 5.816 85.3298 6.328 85.3298 6.968C85.3298 7.416 85.4578 7.768 85.7778 8.024C86.0978 8.28 86.5778 8.472 87.2498 8.664C87.8898 8.856 88.9778 9.08 90.4818 9.368C91.9858 9.688 93.2338 10.04 94.2578 10.456C95.2498 10.904 96.0498 11.544 96.6578 12.376C97.2658 13.24 97.5858 14.392 97.5858 15.8C97.5858 17.208 97.1698 18.456 96.4018 19.576C95.6018 20.728 94.5138 21.592 93.1058 22.232C91.6978 22.872 90.1618 23.192 88.4338 23.192C86.6418 23.192 85.0098 22.872 83.5698 22.2C82.0978 21.56 80.9778 20.632 80.1458 19.48C79.3138 18.328 78.8978 17.048 78.8978 15.608L84.6258 15.736ZM10.2 34.6C11.896 34.6 13.4 34.92 14.712 35.56C15.992 36.2 17.016 37.128 17.752 38.28C18.456 39.432 18.84 40.808 18.84 42.344C18.84 43.688 18.52 44.904 17.944 45.992C17.336 47.08 16.536 47.976 15.512 48.648L19.576 57H13.112L9.816 50.088H6.648V57H0.76V34.6H10.2ZM6.648 45.288H9.72C10.68 45.288 11.416 45.032 11.992 44.52C12.536 44.008 12.824 43.272 12.824 42.344C12.824 41.448 12.536 40.712 11.992 40.2C11.416 39.688 10.68 39.4 9.72 39.4H6.648V45.288ZM21.1825 34.6H36.6385V39.592H27.0705V43.432H34.7185V48.104H27.0705V52.008H36.9905V57H21.1825V34.6ZM37.3138 57L45.3138 34.6H52.4178L60.3538 57H54.0178L52.6098 52.744H44.8018L43.4258 57H37.3138ZM46.3058 48.104H51.0738L48.6738 40.84L46.3058 48.104ZM61.465 57V34.6H67.353V52.008H75.545V57H61.465ZM77.2938 34.6H83.1818V57H77.2938V34.6ZM84.94 34.6H102.924V39.592H96.876V57H90.988V39.592H84.94V34.6ZM102.906 34.6H109.786L113.946 42.76L118.458 34.6H124.986L116.89 48.68V57H111.002V48.68L102.906 34.6Z" fill="black"/>
<path d="M123.942 51.816C124.55 51.24 125.318 50.92 126.246 50.92C127.142 50.92 127.91 51.24 128.518 51.816C129.126 52.424 129.446 53.16 129.446 54.056C129.446 54.952 129.126 55.72 128.518 56.296C127.91 56.904 127.142 57.192 126.246 57.192C125.318 57.192 124.55 56.904 123.942 56.296C123.334 55.72 123.046 54.952 123.046 54.056C123.046 53.16 123.334 52.424 123.942 51.816Z" fill="#E068F4"/>
</svg>
